<?xml version="1.0" encoding="utf-8"?>
<!-- Generator: Adobe Illustrator 24.0.0, SVG Export Plug-In . SVG Version: 6.00 Build 0)  -->
<svg version="1.1" id="Layer_1" xmlns="http://www.w3.org/2000/svg" xmlns:xlink="http://www.w3.org/1999/xlink" x="0px" y="0px"
	 viewBox="0 0 300 43.5" style="enable-background:new 0 0 300 43.5;" xml:space="preserve">
<style type="text/css">
	.st0{font-family:'Rockwell';}
	.st1{font-size:45.732px;}
	.st2{clip-path:url(#SVGID_13_);}
	.st3{clip-path:url(#SVGID_14_);}
	.st4{clip-path:url(#SVGID_15_);}
	.st5{clip-path:url(#SVGID_16_);}
	.st6{clip-path:url(#SVGID_17_);}
	.st7{clip-path:url(#SVGID_18_);}
	.st8{clip-path:url(#SVGID_19_);}
	.st9{clip-path:url(#SVGID_20_);}
	.st10{clip-path:url(#SVGID_21_);}
	.st11{clip-path:url(#SVGID_22_);}
	.st12{clip-path:url(#SVGID_23_);}
	.st13{opacity:0.9;clip-path:url(#SVGID_24_);}
	.st14{fill:#8A0000;}
	.st15{clip-path:url(#SVGID_24_);}
	.st16{font-family:'MyriadPro-Regular';}
	.st17{font-size:91.4639px;}
	.st18{opacity:0.76;clip-path:url(#SVGID_24_);enable-background:new    ;}
	.st19{clip-path:url(#SVGID_24_);enable-background:new    ;}
	.st20{clip-path:url(#SVGID_26_);fill:#8A0000;}
	.st21{font-size:45.9268px;}
	.st22{clip-path:url(#SVGID_28_);fill:#28BAA2;}
	.st23{opacity:0.9;clip-path:url(#SVGID_28_);}
	.st24{fill:url(#SVGID_29_);}
	.st25{fill:#D8D0FF;}
	.st26{clip-path:url(#SVGID_28_);}
	.st27{opacity:0.76;clip-path:url(#SVGID_28_);enable-background:new    ;}
	.st28{fill:#FFFFFF;}
</style>
<g>
	<defs>
		<path id="SVGID_1_" d="M73.6,23.6H55.4c0.3,2,1.1,3.6,2.4,4.8c1.3,1.2,3,1.9,5,1.9c3,0,5.3-1.2,7-3.6l3.8,1.7
			c-1.2,1.9-2.8,3.3-4.8,4.2c-2,0.9-4,1.4-6.1,1.4c-3.3,0-6.1-1-8.5-3.1c-2.3-2.1-3.5-4.8-3.5-8.3c0-3.3,1.1-6.1,3.4-8.2
			c2.3-2.1,4.9-3.2,7.9-3.2c2.9,0,5.5,1,7.9,3.1C72.2,16.4,73.5,19.5,73.6,23.6z M69.2,20.5c-0.3-1.5-1.1-2.9-2.4-4.1
			c-1.3-1.2-2.9-1.8-4.7-1.8c-1.7,0-3.1,0.6-4.4,1.7c-1.2,1.1-1.9,2.5-2.2,4.3L69.2,20.5L69.2,20.5z"/>
	</defs>
	<defs>
		<path id="SVGID_2_" d="M84.5,11.7v2.6c2.7-2,5.2-2.9,7.5-2.9c1.4,0,2.6,0.3,3.5,1c0.9,0.7,1.5,1.5,1.8,2.4c0.3,1,0.4,2.4,0.4,4.2
			v10.5h3.6v3.8h-7.9V19.2c0-1.6-0.2-2.7-0.7-3.2c-0.5-0.5-1.1-0.7-1.8-0.7c-1.9,0-4,0.9-6.4,2.7v11.6h3.7v3.8H76.5v-3.8h3.8V15.5
			h-3.8v-3.8L84.5,11.7L84.5,11.7z"/>
	</defs>
	<defs>
		<path id="SVGID_3_" d="M106.2,29.6V6.1h-3.8V2.3h8.1v27.3h3.3v3.8h-11.4v-3.8H106.2z"/>
	</defs>
	<defs>
		<path id="SVGID_4_" d="M119.7,29.6V15.5h-3.4v-3.8h7.6v17.8h3.4v3.8h-10.9v-3.8H119.7z M119.1,4.4c0-0.7,0.2-1.3,0.7-1.8
			c0.5-0.5,1.1-0.8,1.8-0.8c0.7,0,1.3,0.2,1.8,0.7c0.5,0.5,0.8,1.1,0.8,1.8c0,0.7-0.3,1.3-0.8,1.8c-0.5,0.5-1.1,0.7-1.8,0.7
			c-0.7,0-1.3-0.3-1.8-0.8C119.3,5.7,119.1,5.1,119.1,4.4z"/>
	</defs>
	<defs>
		<path id="SVGID_5_" d="M129.6,15.5v-3.8h2.8V8.4l4.2-3.9v7.2h4v3.8h-4V26c0,1.7,0.1,2.7,0.3,3.1c0.2,0.4,0.7,0.6,1.4,0.6
			c0.8,0,1.6-0.1,2.3-0.4v3.9c-1.1,0.4-2.2,0.6-3.3,0.6c-1.3,0-2.3-0.3-3.1-0.9c-0.8-0.6-1.3-1.3-1.5-2.2c-0.2-0.9-0.3-2.4-0.3-4.5
			V15.5H129.6z"/>
	</defs>
	<defs>
		<path id="SVGID_6_" d="M166.5,23.6h-18.2c0.3,2,1.1,3.6,2.4,4.8c1.3,1.2,3,1.9,5,1.9c3,0,5.3-1.2,7-3.6l3.8,1.7
			c-1.2,1.9-2.8,3.3-4.8,4.2c-2,0.9-4,1.4-6.1,1.4c-3.3,0-6.1-1-8.5-3.1c-2.3-2.1-3.5-4.8-3.5-8.3c0-3.3,1.1-6.1,3.4-8.2
			c2.3-2.1,4.9-3.2,7.9-3.2c2.9,0,5.5,1,7.9,3.1C165.2,16.4,166.4,19.5,166.5,23.6z M162.1,20.5c-0.3-1.5-1.1-2.9-2.4-4.1
			c-1.3-1.2-2.9-1.8-4.7-1.8c-1.7,0-3.1,0.6-4.4,1.7c-1.2,1.1-1.9,2.5-2.2,4.3L162.1,20.5L162.1,20.5z"/>
	</defs>
	<defs>
		<path id="SVGID_7_" d="M177.5,11.7v2.6c2.7-2,5.2-2.9,7.5-2.9c1.4,0,2.6,0.3,3.5,1c0.9,0.7,1.5,1.5,1.8,2.4c0.3,1,0.4,2.4,0.4,4.2
			v10.5h3.6v3.8h-7.9V19.2c0-1.6-0.2-2.7-0.7-3.2s-1.1-0.7-1.8-0.7c-1.9,0-4,0.9-6.4,2.7v11.6h3.7v3.8h-11.8v-3.8h3.8V15.5h-3.8
			v-3.8L177.5,11.7L177.5,11.7z"/>
	</defs>
	<defs>
		<path id="SVGID_8_" d="M195.8,15.5v-3.8h2.8V8.4l4.2-3.9v7.2h4v3.8h-4V26c0,1.7,0.1,2.7,0.3,3.1c0.2,0.4,0.7,0.6,1.4,0.6
			c0.8,0,1.6-0.1,2.3-0.4v3.9c-1.1,0.4-2.2,0.6-3.3,0.6c-1.3,0-2.3-0.3-3.1-0.9c-0.8-0.6-1.3-1.3-1.5-2.2c-0.2-0.9-0.3-2.4-0.3-4.5
			V15.5H195.8z"/>
	</defs>
	<defs>
		<path id="SVGID_9_" d="M213.1,29.6V6.1h-3.9V2.3h8.1v11.9c2.5-2.1,5-3.1,7.3-3.1c1.4,0,2.6,0.3,3.5,0.9c0.9,0.6,1.6,1.4,1.9,2.4
			c0.3,1,0.5,2.4,0.5,4.3v10.9h3.7v3.8h-7.9V20.1c0-1.6-0.1-2.7-0.2-3.3s-0.4-1-0.9-1.4c-0.5-0.4-1-0.5-1.7-0.5
			c-1.6,0-3.7,0.9-6.3,2.8v11.8h3.8v3.8h-11.9v-3.8H213.1z"/>
	</defs>
	<defs>
		<path id="SVGID_10_" d="M258.9,23.6h-18.2c0.3,2,1.1,3.6,2.4,4.8c1.3,1.2,3,1.9,5,1.9c3,0,5.3-1.2,7-3.6l3.8,1.7
			c-1.2,1.9-2.8,3.3-4.8,4.2c-2,0.9-4,1.4-6.1,1.4c-3.3,0-6.1-1-8.5-3.1c-2.3-2.1-3.5-4.8-3.5-8.3c0-3.3,1.1-6.1,3.4-8.2
			c2.3-2.1,4.9-3.2,7.9-3.2c2.9,0,5.5,1,7.9,3.1C257.6,16.4,258.9,19.5,258.9,23.6z M254.6,20.5c-0.3-1.5-1.1-2.9-2.4-4.1
			c-1.3-1.2-2.9-1.8-4.7-1.8c-1.7,0-3.1,0.6-4.4,1.7c-1.2,1.1-1.9,2.5-2.2,4.3L254.6,20.5L254.6,20.5z"/>
	</defs>
	<defs>
		<path id="SVGID_11_" d="M265.7,29.6V15.5h-3.6v-3.8h7.8v2.7c2.6-2,5.1-3.1,7.5-3.1c2.5,0,4.2,1.1,5.1,3.4c2.8-2.2,5.4-3.4,7.9-3.4
			c1.4,0,2.5,0.3,3.5,0.9c0.9,0.6,1.5,1.4,1.8,2.3c0.3,0.9,0.5,2.3,0.5,4.2v10.7h3.8v3.8h-8V19.6c0-1.3-0.1-2.1-0.2-2.6
			c-0.1-0.5-0.4-0.9-0.8-1.3c-0.5-0.3-1-0.5-1.6-0.5c-1.8,0-3.9,0.9-6.2,2.8v11.6h3.7v3.8h-8V19.2c0-1.4-0.2-2.4-0.6-3.1
			c-0.4-0.6-1.1-0.9-2.1-0.9c-1.6,0-3.7,0.9-6.2,2.8v11.6h3.8v3.8h-11.9v-3.8L265.7,29.6L265.7,29.6z"/>
	</defs>
	<defs>
		<text id="SVGID_12_" transform="matrix(1 0 0 1 49.0409 33.3516)" class="st0 st1">enlitenthem</text>
	</defs>
	<use xlink:href="#SVGID_1_"  style="overflow:visible;fill:#8A0000;"/>
	<use xlink:href="#SVGID_2_"  style="overflow:visible;fill:#8A0000;"/>
	<use xlink:href="#SVGID_3_"  style="overflow:visible;fill:#8A0000;"/>
	<use xlink:href="#SVGID_4_"  style="overflow:visible;fill:#8A0000;"/>
	<use xlink:href="#SVGID_5_"  style="overflow:visible;fill:#8A0000;"/>
	<use xlink:href="#SVGID_6_"  style="overflow:visible;fill:#8A0000;"/>
	<use xlink:href="#SVGID_7_"  style="overflow:visible;fill:#8A0000;"/>
	<use xlink:href="#SVGID_8_"  style="overflow:visible;fill:#8A0000;"/>
	<use xlink:href="#SVGID_9_"  style="overflow:visible;fill:#8A0000;"/>
	<use xlink:href="#SVGID_10_"  style="overflow:visible;fill:#8A0000;"/>
	<use xlink:href="#SVGID_11_"  style="overflow:visible;fill:#8A0000;"/>
	<clipPath id="SVGID_13_">
		<use xlink:href="#SVGID_1_"  style="overflow:visible;"/>
	</clipPath>
	<clipPath id="SVGID_14_" class="st2">
		<use xlink:href="#SVGID_2_"  style="overflow:visible;"/>
	</clipPath>
	<clipPath id="SVGID_15_" class="st3">
		<use xlink:href="#SVGID_3_"  style="overflow:visible;"/>
	</clipPath>
	<clipPath id="SVGID_16_" class="st4">
		<use xlink:href="#SVGID_4_"  style="overflow:visible;"/>
	</clipPath>
	<clipPath id="SVGID_17_" class="st5">
		<use xlink:href="#SVGID_5_"  style="overflow:visible;"/>
	</clipPath>
	<clipPath id="SVGID_18_" class="st6">
		<use xlink:href="#SVGID_6_"  style="overflow:visible;"/>
	</clipPath>
	<clipPath id="SVGID_19_" class="st7">
		<use xlink:href="#SVGID_7_"  style="overflow:visible;"/>
	</clipPath>
	<clipPath id="SVGID_20_" class="st8">
		<use xlink:href="#SVGID_8_"  style="overflow:visible;"/>
	</clipPath>
	<clipPath id="SVGID_21_" class="st9">
		<use xlink:href="#SVGID_9_"  style="overflow:visible;"/>
	</clipPath>
	<clipPath id="SVGID_22_" class="st10">
		<use xlink:href="#SVGID_10_"  style="overflow:visible;"/>
	</clipPath>
	<clipPath id="SVGID_23_" class="st11">
		<use xlink:href="#SVGID_11_"  style="overflow:visible;"/>
	</clipPath>
	<clipPath id="SVGID_24_" class="st12">
		<use xlink:href="#SVGID_12_"  style="overflow:visible;enable-background:new    ;"/>
	</clipPath>
	<g class="st13">
		<circle class="st14" cx="7.2" cy="20" r="34.9"/>
		<path class="st14" d="M7.2-14.7c9.3,0,18,3.6,24.6,10.2C38.3,2,41.9,10.8,41.9,20s-3.6,18-10.2,24.6c-6.6,6.6-15.3,10.2-24.6,10.2
			s-18-3.6-24.6-10.2c-6.6-6.6-10.2-15.3-10.2-24.6s3.6-18,10.2-24.6C-10.8-11.1-2.1-14.7,7.2-14.7 M7.2-15
			C-12.2-15-27.9,0.7-27.9,20s15.7,35.1,35.1,35.1S42.3,39.4,42.3,20S26.6-15,7.2-15L7.2-15z"/>
	</g>
	<g class="st15">
		<text transform="matrix(1 0 0 1 -18.9064 41.1866)" class="st14 st16 st17">e</text>
	</g>
	<g class="st18">
		<text transform="matrix(1 0 0 1 -15.2536 41.0831)" class="st14 st16 st17">e</text>
	</g>
	<g class="st19">
		<text transform="matrix(1 0 0 1 -13.4875 40.9796)" class="st14 st16 st17">e</text>
	</g>
</g>
<g>
	<defs>
		<circle id="SVGID_25_" cx="19.6" cy="22.5" r="17.4"/>
	</defs>
	<clipPath id="SVGID_26_">
		<use xlink:href="#SVGID_25_"  style="overflow:visible;"/>
	</clipPath>
	<circle class="st20" cx="19.6" cy="22.5" r="24.9"/>
</g>
<g>
	<defs>
		<text id="SVGID_27_" transform="matrix(1 0 0 1 8.4409 33.4458)" class="st16 st21">e</text>
	</defs>
	<clipPath id="SVGID_28_">
		<use xlink:href="#SVGID_27_"  style="overflow:visible;enable-background:new    ;"/>
	</clipPath>
	<circle class="st22" cx="21" cy="21.5" r="25.1"/>
	<g class="st23">
		
			<linearGradient id="SVGID_29_" gradientUnits="userSpaceOnUse" x1="-13.7046" y1="23.0681" x2="59.1781" y2="23.0681" gradientTransform="matrix(1 0 0 -1 0 46)">
			<stop  offset="0.1053" style="stop-color:#9D9D9D"/>
			<stop  offset="0.1817" style="stop-color:#00278B"/>
		</linearGradient>
		<circle class="st24" cx="18.8" cy="22.9" r="17.5"/>
		<path class="st25" d="M18.8,5.5c4.7,0,9,1.8,12.3,5.1c3.3,3.3,5.1,7.7,5.1,12.3s-1.8,9-5.1,12.3c-3.3,3.3-7.7,5.1-12.3,5.1
			s-9-1.8-12.3-5.1C3.2,32,1.4,27.6,1.4,22.9s1.8-9,5.1-12.3C9.8,7.3,14.2,5.5,18.8,5.5 M18.8,5.3c-9.7,0-17.6,7.9-17.6,17.6
			s7.9,17.6,17.6,17.6s17.6-7.9,17.6-17.6S28.5,5.3,18.8,5.3L18.8,5.3z"/>
	</g>
	<g class="st26">
		<text transform="matrix(1 0 0 1 5.7197 33.5503)" class="st16 st21">e</text>
	</g>
	<g class="st27">
		<text transform="matrix(1 0 0 1 7.5537 33.4985)" class="st28 st16 st21">e</text>
	</g>
</g>
</svg>
